<mxfile host="app.diagrams.net" agent="Mozilla/5.0 (Windows NT 10.0; Win64; x64) AppleWebKit/537.36 (KHTML, like Gecko) Chrome/134.0.0.0 Safari/537.36" version="26.1.0">
  <diagram name="Page-1" id="jQzNHCHP7weWSz1zmWun">
    <mxGraphModel dx="1050" dy="530" grid="1" gridSize="10" guides="1" tooltips="1" connect="1" arrows="1" fold="1" page="1" pageScale="1" pageWidth="850" pageHeight="1100" math="0" shadow="0">
      <root>
        <mxCell id="0" />
        <mxCell id="1" parent="0" />
        <mxCell id="htVWsCmEMldjObqeJuxm-1" value="" style="rounded=0;whiteSpace=wrap;html=1;dashed=1;" parent="1" vertex="1">
          <mxGeometry x="22" y="70" width="560" height="190" as="geometry" />
        </mxCell>
        <mxCell id="htVWsCmEMldjObqeJuxm-2" value="" style="rounded=0;whiteSpace=wrap;html=1;dashed=1;" parent="1" vertex="1">
          <mxGeometry x="22" y="320" width="560" height="190" as="geometry" />
        </mxCell>
        <mxCell id="htVWsCmEMldjObqeJuxm-3" value="master" style="rounded=1;whiteSpace=wrap;html=1;" parent="1" vertex="1">
          <mxGeometry x="93" y="135" width="120" height="60" as="geometry" />
        </mxCell>
        <mxCell id="htVWsCmEMldjObqeJuxm-4" value="master" style="rounded=1;whiteSpace=wrap;html=1;" parent="1" vertex="1">
          <mxGeometry x="93" y="400" width="120" height="60" as="geometry" />
        </mxCell>
        <mxCell id="htVWsCmEMldjObqeJuxm-5" value="my_branch" style="rounded=1;whiteSpace=wrap;html=1;" parent="1" vertex="1">
          <mxGeometry x="353" y="400" width="120" height="60" as="geometry" />
        </mxCell>
        <mxCell id="htVWsCmEMldjObqeJuxm-6" value="my_branch" style="rounded=1;whiteSpace=wrap;html=1;" parent="1" vertex="1">
          <mxGeometry x="353" y="130" width="120" height="60" as="geometry" />
        </mxCell>
        <mxCell id="htVWsCmEMldjObqeJuxm-8" value="Remote (origin)" style="text;html=1;align=center;verticalAlign=middle;whiteSpace=wrap;rounded=0;" parent="1" vertex="1">
          <mxGeometry x="22" y="70" width="60" height="30" as="geometry" />
        </mxCell>
        <mxCell id="htVWsCmEMldjObqeJuxm-9" value="Local" style="text;html=1;align=center;verticalAlign=middle;whiteSpace=wrap;rounded=0;" parent="1" vertex="1">
          <mxGeometry x="22" y="320" width="60" height="30" as="geometry" />
        </mxCell>
        <mxCell id="htVWsCmEMldjObqeJuxm-10" value="" style="endArrow=classic;html=1;rounded=0;exitX=0.5;exitY=1;exitDx=0;exitDy=0;" parent="1" source="htVWsCmEMldjObqeJuxm-3" target="htVWsCmEMldjObqeJuxm-4" edge="1">
          <mxGeometry width="50" height="50" relative="1" as="geometry">
            <mxPoint x="303" y="300" as="sourcePoint" />
            <mxPoint x="353" y="250" as="targetPoint" />
          </mxGeometry>
        </mxCell>
        <mxCell id="htVWsCmEMldjObqeJuxm-11" value="&lt;font style=&quot;font-size: 20px;&quot;&gt;1, 2&lt;/font&gt;" style="text;html=1;align=center;verticalAlign=middle;whiteSpace=wrap;rounded=0;" parent="1" vertex="1">
          <mxGeometry x="108" y="270" width="40" height="40" as="geometry" />
        </mxCell>
        <mxCell id="htVWsCmEMldjObqeJuxm-12" value="" style="endArrow=classic;html=1;rounded=0;exitX=1;exitY=0.5;exitDx=0;exitDy=0;entryX=0;entryY=0.5;entryDx=0;entryDy=0;" parent="1" source="htVWsCmEMldjObqeJuxm-4" target="htVWsCmEMldjObqeJuxm-5" edge="1">
          <mxGeometry width="50" height="50" relative="1" as="geometry">
            <mxPoint x="387" y="300" as="sourcePoint" />
            <mxPoint x="437" y="250" as="targetPoint" />
          </mxGeometry>
        </mxCell>
        <mxCell id="htVWsCmEMldjObqeJuxm-13" value="&lt;font style=&quot;font-size: 20px;&quot;&gt;3, 4, 5&lt;/font&gt;" style="text;html=1;align=center;verticalAlign=middle;whiteSpace=wrap;rounded=0;" parent="1" vertex="1">
          <mxGeometry x="250" y="390" width="60" height="30" as="geometry" />
        </mxCell>
        <mxCell id="htVWsCmEMldjObqeJuxm-16" value="&lt;ol&gt;&lt;li&gt;git checkout master&lt;/li&gt;&lt;li&gt;git pull&amp;nbsp; origin master&lt;/li&gt;&lt;li&gt;git checkout my_branch&lt;/li&gt;&lt;li&gt;git merge master&lt;/li&gt;&lt;li&gt;resolve conflicts and commit (daca e necesar)&lt;/li&gt;&lt;li&gt;git push origin my_branch&lt;/li&gt;&lt;/ol&gt;" style="text;strokeColor=none;fillColor=none;html=1;whiteSpace=wrap;verticalAlign=middle;overflow=hidden;" parent="1" vertex="1">
          <mxGeometry x="610" y="70" width="220" height="120" as="geometry" />
        </mxCell>
        <mxCell id="htVWsCmEMldjObqeJuxm-17" value="" style="endArrow=classic;html=1;rounded=0;exitX=0.5;exitY=0;exitDx=0;exitDy=0;entryX=0.5;entryY=1;entryDx=0;entryDy=0;" parent="1" source="htVWsCmEMldjObqeJuxm-5" target="htVWsCmEMldjObqeJuxm-6" edge="1">
          <mxGeometry width="50" height="50" relative="1" as="geometry">
            <mxPoint x="387" y="290" as="sourcePoint" />
            <mxPoint x="437" y="240" as="targetPoint" />
          </mxGeometry>
        </mxCell>
        <mxCell id="htVWsCmEMldjObqeJuxm-18" value="&lt;font style=&quot;font-size: 20px;&quot;&gt;6&lt;/font&gt;" style="text;html=1;align=center;verticalAlign=middle;whiteSpace=wrap;rounded=0;" parent="1" vertex="1">
          <mxGeometry x="427" y="270" width="40" height="40" as="geometry" />
        </mxCell>
      </root>
    </mxGraphModel>
  </diagram>
</mxfile>
